# xmcd CD database file
#
# Track frame offsets:
#	150
#	15573
#	25199
#	35058
#	45436
#	59027
#	71362
#	82379
#	93776
#	104715
#
# Disc length: 1561 seconds
#
# Revision: 0
# Processed by: cddbd v1.5.2PL0 Copyright (c) Steve Scherf et al.
# Submitted via: cdripper 1,0,33,916
#
DISCID=8406170a
DTITLE=Various Artist - Truckin' Country Classics: Truckin' Country Smashes
DYEAR=2008
DGENRE=Country
TTITLE0=I'm A Truck - Red Simpson
TTITLE1=The Race Is On - George Jones
TTITLE2=Rock Island Line - Johnny Cash
TTITLE3=Two Six Packs Away - Dave Dudley
TTITLE4=Big City - Merle Haggard
TTITLE5=500 Miles Away From Home - Bobby Bare
TTITLE6=Trucker's Prayer
TTITLE7=Rollin' With The Flow - Charlie Rich
TTITLE8=Pop Drove A Diesel - Dave Dudley
TTITLE9=The Golden Rocket - Hank Snow
EXTD=YEAR: 2008
EXTT0=
EXTT1=
EXTT2=
EXTT3=
EXTT4=
EXTT5=
EXTT6=
EXTT7=
EXTT8=
EXTT9=
PLAYORDER=
